<?xml version="1.0" standalone="no"?>
<!DOCTYPE svg PUBLIC "-//W3C//DTD SVG 20010904//EN"
 "http://www.w3.org/TR/2001/REC-SVG-20010904/DTD/svg10.dtd">
<svg version="1.0" xmlns="http://www.w3.org/2000/svg"
 width="768.000000pt" height="768.000000pt" viewBox="0 0 768.000000 768.000000"
 preserveAspectRatio="xMidYMid meet">

<g transform="translate(0.000000,768.000000) scale(0.100000,-0.100000)"
fill="#000000" stroke="none">
<path d="M3560 7670 c-668 -55 -1284 -270 -1839 -642 -699 -470 -1241 -1170
-1511 -1953 -148 -430 -204 -770 -204 -1235 0 -270 9 -387 45 -610 210 -1285
1098 -2411 2305 -2924 346 -147 730 -246 1109 -288 251 -27 691 -14 950 28
944 153 1816 664 2416 1416 605 758 905 1695 840 2623 -37 530 -153 959 -386
1430 -203 410 -418 710 -744 1035 -619 618 -1410 1002 -2276 1105 -155 19
-557 27 -705 15z m715 -688 c1049 -162 1934 -802 2402 -1737 143 -285 248
-610 297 -915 44 -276 47 -667 7 -925 -220 -1439 -1365 -2553 -2796 -2720
-164 -19 -496 -22 -660 -6 -564 57 -1130 279 -1589 625 -705 531 -1168 1354
-1257 2231 -16 163 -13 496 6 660 102 875 565 1674 1272 2198 446 330 1014
549 1578 606 154 16 590 6 740 -17z"/>
<path d="M2930 5100 c-190 -199 -365 -383 -390 -409 -25 -27 -216 -227 -425
-446 -209 -218 -380 -402 -380 -410 0 -7 133 -152 295 -321 356 -373 287 -301
813 -851 l432 -453 559 0 558 0 -98 103 c-54 56 -318 327 -587 602 l-489 500
1281 3 1281 2 0 415 0 415 -1281 2 -1281 3 474 485 c260 267 525 538 587 603
l114 117 -559 0 -559 0 -345 -360z"/>
</g>
</svg>
