<?xml version="1.0" encoding="UTF-8" standalone="no"?>
<svg
   version="1.1"
   x="0px"
   y="0px"
   viewBox="0 0 87.978767 80.000053"
   id="svg16"
   sodipodi:docname="cart.svg"
   width="87.978767"
   height="80.000053"
   inkscape:version="1.2.1 (9c6d41e410, 2022-07-14)"
   xmlns:inkscape="http://www.inkscape.org/namespaces/inkscape"
   xmlns:sodipodi="http://sodipodi.sourceforge.net/DTD/sodipodi-0.dtd"
   xmlns="http://www.w3.org/2000/svg"
   xmlns:svg="http://www.w3.org/2000/svg">
  <defs
     id="defs20" />
  <sodipodi:namedview
     id="namedview18"
     pagecolor="#ffffff"
     bordercolor="#999999"
     borderopacity="1"
     inkscape:showpageshadow="0"
     inkscape:pageopacity="0"
     inkscape:pagecheckerboard="0"
     inkscape:deskcolor="#d1d1d1"
     showgrid="false"
     inkscape:zoom="8.216"
     inkscape:cx="42.90409"
     inkscape:cy="52.519474"
     inkscape:window-width="1350"
     inkscape:window-height="1230"
     inkscape:window-x="2117"
     inkscape:window-y="743"
     inkscape:window-maximized="0"
     inkscape:current-layer="svg16" />
  <g
     transform="translate(-6.0106173,-962.36215)"
     id="g14">
    <path
       style="color:#000000;text-indent:0;text-transform:none;direction:ltr;baseline-shift:baseline;enable-background:accumulate"
       d="m 8.0106173,962.36221 c -1.1046,0 -2,0.89543 -2,2 0,1.10457 0.8954,2 2,2 H 18.385617 l 10.5312,49.74999 c 0.2555,1.2291 1.0938,2.25 2.0938,2.25 h 50 c 1.0566,0.015 2.0285,-0.9432 2.0285,-2 0,-1.0567 -0.9719,-2.0149 -2.0285,-2 h -48.375 l -1.6875,-8 h 54.0625 c 0.8955,-0.01 1.7416,-0.6887 1.9375,-1.5625 l 7,-29.99998 c 0.2601,-1.16072 -0.748,-2.429 -1.9375,-2.4375 h -68.25 l -1.7812,-8.43751 c -0.1982,-0.88398 -1.0629,-1.57023 -1.9688,-1.5625 z m 16.5937997,14.00001 h 20.4062 v 11 h -18.0625 z m 24.4062,0 h 16 v 11 h -16 z m 20,0 h 20.5 l -2.5625,11 h -17.9375 z m -41.2188,15 h 17.2188 v 10.99998 h -14.9062 z m 21.2188,0 h 16 v 10.99998 h -16 z m 20,0 h 17 l -2.5938,10.99998 h -14.4062 z m -28,32.99998 c -4.9468,0 -9,4.0531 -9,9 0,4.9469 4.0532,9 9,9 4.9469,0 9,-4.0531 9,-9 0,-4.9468 -4.0531,-9 -9,-9 z m 30,0 c -4.9468,0 -9,4.0531 -9,9 0,4.9469 4.0532,9 9,9 4.9469,0 9,-4.0531 9,-9 0,-4.9468 -4.0531,-9 -9,-9 z m -30,4 c 2.7851,0 5,2.2149 5,5 0,2.7852 -2.2149,5 -5,5 -2.785,0 -5,-2.2149 -5,-5 0,-2.785 2.215,-5 5,-5 z m 30,0 c 2.7851,0 5,2.2149 5,5 0,2.7852 -2.2149,5 -5,5 -2.785,0 -5,-2.2149 -5,-5 0,-2.785 2.215,-5 5,-5 z"
       fill="#000000"
       fill-opacity="1"
       stroke="none"
       marker="none"
       visibility="visible"
       display="inline"
       overflow="visible"
       id="path12" />
  </g>
</svg>
