<?xml version="1.0" standalone="no"?>
<!DOCTYPE svg PUBLIC "-//W3C//DTD SVG 20010904//EN"
 "http://www.w3.org/TR/2001/REC-SVG-20010904/DTD/svg10.dtd">
<svg version="1.0" xmlns="http://www.w3.org/2000/svg"
 width="512.000000pt" height="512.000000pt" viewBox="0 0 512.000000 512.000000"
 preserveAspectRatio="xMidYMid meet">

<g transform="translate(0.000000,512.000000) scale(0.100000,-0.100000)"
fill="#000000" stroke="none">
<path d="M1585 5108 c-95 -34 -160 -121 -171 -227 l-7 -61 -151 0 c-220 0
-319 -29 -442 -128 -108 -88 -177 -216 -195 -366 -6 -51 -9 -800 -7 -1986 l3
-1905 23 -59 c64 -170 187 -291 350 -348 l67 -23 1505 0 1505 0 65 23 c173 63
297 191 353 367 l22 70 0 1955 0 1955 -23 67 c-57 164 -181 289 -348 349 -50
19 -87 23 -241 27 l-183 4 0 52 c-1 90 -53 175 -135 219 l-40 22 -960 2 c-665
1 -969 -2 -990 -9z m1825 -438 l0 -150 -850 0 -850 0 0 150 0 150 850 0 850 0
0 -150z m-1997 -210 c11 -98 63 -176 146 -217 34 -17 95 -18 984 -21 635 -1
962 1 987 8 99 27 180 133 180 238 l0 54 163 -4 c157 -3 164 -4 210 -31 54
-32 102 -92 117 -148 7 -24 9 -682 8 -1941 -3 -1808 -4 -1905 -21 -1943 -25
-55 -73 -103 -132 -131 l-50 -24 -1445 1 c-1181 0 -1452 2 -1483 13 -55 20
-103 61 -134 114 l-28 47 0 1920 c0 1601 2 1926 14 1959 19 54 77 115 136 142
45 22 64 24 196 24 l146 0 6 -60z"/>
<path d="M2005 3702 c-16 -11 -106 -97 -200 -191 -93 -94 -175 -171 -180 -171
-6 0 -31 21 -55 46 -73 76 -123 89 -197 53 -72 -35 -101 -117 -69 -192 7 -18
67 -84 132 -149 97 -95 126 -117 157 -123 79 -15 94 -3 369 272 222 223 257
263 263 296 10 51 -17 120 -57 149 -44 31 -123 35 -163 10z"/>
<path d="M2537 3398 c-39 -23 -77 -86 -77 -128 0 -44 38 -105 79 -128 l40 -22
575 2 c563 3 575 3 602 24 50 37 68 70 68 124 0 54 -18 87 -68 124 -27 21 -39
21 -604 23 l-577 3 -38 -22z"/>
<path d="M2041 2640 c-26 -6 -78 -52 -222 -196 l-188 -187 -60 56 c-65 60
-104 74 -165 63 -95 -18 -143 -124 -97 -214 10 -20 68 -85 128 -144 123 -119
157 -136 228 -117 33 9 84 54 287 257 136 135 255 262 264 280 51 107 -55 229
-175 202z"/>
<path d="M2537 2398 c-39 -23 -77 -86 -77 -128 0 -44 38 -105 79 -128 l40 -22
575 2 c563 3 575 3 602 24 50 37 68 70 68 124 0 54 -18 87 -68 124 -27 21 -39
21 -604 23 l-577 3 -38 -22z"/>
<path d="M2041 1640 c-26 -6 -78 -52 -222 -196 l-188 -187 -60 56 c-65 60
-104 74 -165 63 -95 -18 -143 -124 -97 -214 10 -20 68 -85 128 -144 123 -119
157 -136 228 -117 33 9 84 54 287 257 136 135 255 262 264 280 51 107 -55 229
-175 202z"/>
<path d="M2537 1398 c-39 -23 -77 -86 -77 -128 0 -44 38 -105 79 -128 39 -22
41 -22 606 -22 627 0 611 -1 658 64 31 43 31 129 0 172 -47 66 -31 64 -660 64
-565 0 -568 -1 -606 -22z"/>
</g>
</svg>
