<?xml version="1.0" encoding="UTF-8" standalone="no"?>
<svg
   data-name="Layer 1"
   viewBox="0 0 59.992821 54.000122"
   x="0px"
   y="0px"
   version="1.1"
   id="svg3647"
   sodipodi:docname="folder.svg"
   inkscape:version="1.2.1 (9c6d41e410, 2022-07-14)"
   width="59.992821"
   height="54.000122"
   xmlns:inkscape="http://www.inkscape.org/namespaces/inkscape"
   xmlns:sodipodi="http://sodipodi.sourceforge.net/DTD/sodipodi-0.dtd"
   xmlns="http://www.w3.org/2000/svg"
   xmlns:svg="http://www.w3.org/2000/svg"
   xmlns:rdf="http://www.w3.org/1999/02/22-rdf-syntax-ns#"
   xmlns:cc="http://creativecommons.org/ns#"
   xmlns:dc="http://purl.org/dc/elements/1.1/">
  <defs
     id="defs3651" />
  <sodipodi:namedview
     id="namedview3649"
     pagecolor="#ffffff"
     bordercolor="#999999"
     borderopacity="1"
     inkscape:showpageshadow="0"
     inkscape:pageopacity="0"
     inkscape:pagecheckerboard="0"
     inkscape:deskcolor="#d1d1d1"
     showgrid="false"
     inkscape:zoom="8.424"
     inkscape:cx="29.024217"
     inkscape:cy="39.411206"
     inkscape:window-width="2560"
     inkscape:window-height="1369"
     inkscape:window-x="1432"
     inkscape:window-y="632"
     inkscape:window-maximized="1"
     inkscape:current-layer="svg3647" />
  <title
     id="title3639">Artboard 61</title>
  <path
     d="m 59.4,22.210121 a 3,3 0 0 0 -2.4,-1.21 h -8 v -7 a 7,7 0 0 0 -7,-7 H 27.13 L 20,0.74012101 A 3,3 0 0 0 18,1.210059e-4 H 0 V 44.700121 a 9.31,9.31 0 0 0 9,9.3 h 35.3 a 9.35,9.35 0 0 0 8.91,-6.66 l 6.66,-22.49 a 3,3 0 0 0 -0.47,-2.64 z m -50.1,25.79 a 3.3,3.3 0 0 1 -3.3,-3.3 v -38.7 h 10.87 l 7.13,6.26 a 3,3 0 0 0 2,0.74 h 16 a 1,1 0 0 1 1,1 v 7 H 22 a 3,3 0 0 0 -2.88,2.15 l -6.66,22.49 a 3.32,3.32 0 0 1 -3.16,2.36 z m 38.16,-2.36 a 3.32,3.32 0 0 1 -3.16,2.36 H 18 q 0.12,-0.32 0.22,-0.66 l 6,-20.34 H 53 Z"
     id="path3641" />
  <metadata
     id="metadata192">
    <rdf:RDF>
      <cc:Work
         rdf:about="">
        <dc:title>Artboard 61</dc:title>
      </cc:Work>
    </rdf:RDF>
  </metadata>
</svg>
