<svg xmlns="http://www.w3.org/2000/svg" version="1.1" viewBox="-5.0 -10.0 110.0 135.0">
 <path d="m81.633 25.633-7.2656-7.2656s-2.3672-3.3672-11.367-3.3672h-38c-5.5234 0-10 4.4766-10 10v50c0 2.6523 1.0547 5.1953 2.9297 7.0703s4.418 2.9297 7.0703 2.9297h50c2.6523 0 5.1953-1.0547 7.0703-2.9297s2.9297-4.418 2.9297-7.0703v-38c0-9-3.3672-11.367-3.3672-11.367zm-48.633-4.6328h24v12c0 0.53125-0.21094 1.0391-0.58594 1.4141s-0.88281 0.58594-1.4141 0.58594h-20c-1.1055 0-2-0.89453-2-2zm34 58h-34v-20c0-1.1055 0.89453-2 2-2h30c0.53125 0 1.0391 0.21094 1.4141 0.58594s0.58594 0.88281 0.58594 1.4141zm12-4c0 1.0625-0.42188 2.0781-1.1719 2.8281s-1.7656 1.1719-2.8281 1.1719h-2v-20c0-2.1211-0.84375-4.1562-2.3438-5.6562s-3.5352-2.3438-5.6562-2.3438h-30c-4.418 0-8 3.582-8 8v20h-2c-2.2109 0-4-1.7891-4-4v-50c0-2.2109 1.7891-4 4-4h2v12c0 2.1211 0.84375 4.1562 2.3438 5.6562s3.5352 2.3438 5.6562 2.3438h20c2.1211 0 4.1562-0.84375 5.6562-2.3438s2.3438-3.5352 2.3438-5.6562v-12c4.4609 0 6.3359 0.98828 6.8008 1.2852l7.9141 7.9141c0.29688 0.46484 1.2852 2.3398 1.2852 6.8008z" fill-rule="evenodd"/>
</svg>