<?xml version="1.0" encoding="UTF-8" standalone="no"?>
<svg
   version="1.1"
   viewBox="-5 -10 95.008598 82.907402"
   id="svg162"
   sodipodi:docname="store.svg"
   width="95.008598"
   height="82.907402"
   inkscape:version="1.2.1 (9c6d41e410, 2022-07-14)"
   xmlns:inkscape="http://www.inkscape.org/namespaces/inkscape"
   xmlns:sodipodi="http://sodipodi.sourceforge.net/DTD/sodipodi-0.dtd"
   xmlns="http://www.w3.org/2000/svg"
   xmlns:svg="http://www.w3.org/2000/svg">
  <defs
     id="defs166" />
  <sodipodi:namedview
     id="namedview164"
     pagecolor="#ffffff"
     bordercolor="#999999"
     borderopacity="1"
     inkscape:showpageshadow="0"
     inkscape:pageopacity="0"
     inkscape:pagecheckerboard="0"
     inkscape:deskcolor="#d1d1d1"
     showgrid="false"
     inkscape:zoom="7.4363636"
     inkscape:cx="47.469438"
     inkscape:cy="48.948655"
     inkscape:window-width="2560"
     inkscape:window-height="1369"
     inkscape:window-x="1432"
     inkscape:window-y="632"
     inkscape:window-maximized="1"
     inkscape:current-layer="svg162" />
  <g
     id="g160"
     transform="translate(-7.50038,-18.5974)">
    <path
       d="m 69.699,74.102 c -0.89844,0 -1.6016,0.69922 -1.6016,1.6016 v 8.3984 c 0,2.1992 -1.8008,4 -4,4 H 34.3004 V 67.2 c 0,-2.8008 -2.1992,-5 -5,-5 h -6.1992 c -2.8008,0 -5,2.1992 -5,5 v 20.898 h -4.8008 c -2.1992,0 -4,-1.8008 -4,-4 V 60.102 c 0,-0.89844 -0.69922,-1.6016 -1.6016,-1.6016 -0.89844,0 -1.6016,0.69922 -1.6016,1.6016 v 24.102 c 0,4 3.3008,7.3008 7.3008,7.3008 h 50.699 c 4,0 7.3008,-3.3008 7.3008,-7.3008 V 75.8056 C 71.30014,74.8017 70.60092,74.1025 69.6986,74.1025 Z M 31,88.102 H 21.3984 V 67.2 c 0,-0.89844 0.80078,-1.6992 1.6992,-1.6992 h 6.1992 c 1,0 1.6992,0.80078 1.6992,1.6992 z"
       id="path150" />
    <path
       d="m 19.801,53 c 0.60156,-0.60156 1.1992,-1.1992 1.6016,-1.8984 1.8008,2.8008 5,4.6992 8.6992,4.6992 3.6016,0 6.8008,-1.8984 8.6016,-4.6992 1.8008,2.8008 5,4.6992 8.6016,4.6992 2.1992,0 4.1992,-0.69922 6,-2 0.5,-0.30078 0.80078,-0.80078 0.80078,-1.3984 0,-1.3008 -1.6016,-2.1016 -2.6016,-1.3008 -1.1992,0.89844 -2.6992,1.3984 -4.1992,1.3984 -3.8008,0 -7,-3.1016 -7,-7 0,-0.89844 -0.69922,-1.6016 -1.6016,-1.6016 -0.89844,0 -1.6016,0.69922 -1.6016,1.6016 0,3.8984 -3.1016,7 -7,7 -3.8984,0 -7,-3.1016 -7,-7 0,-0.89844 -0.69922,-1.6016 -1.6016,-1.6016 -0.89844,0 -1.6016,0.69922 -1.6016,1.6016 0,2 -0.80078,3.8008 -2.1992,5.1016 -1.3984,1.3008 -3.3008,2 -5.3008,1.8984 -3.6992,-0.19922 -6.5,-3.3984 -6.5,-7.3008 v -4.8008 c 0,-1.3984 0.5,-2.8008 1.3984,-4 l 7,-9.1016 c 1,-1.3008 2.6016,-2.1016 4.1992,-2.1016 l 29.504,0.0039 c 0.89844,0 1.6016,-0.69922 1.6016,-1.6016 0,-0.89844 -0.69922,-1.6016 -1.6016,-1.6016 l -29.699,0.0039 c -2.6016,0 -5.1992,1.3008 -6.8008,3.3008 l -7,9.1016 c -1.3008,1.6992 -2,3.8008 -2,6 v 4.8008 c 0,5.6016 4.1992,10.199 9.6016,10.602 2.8984,0.09375 5.5977,-0.90625 7.6992,-2.8047 z"
       id="path152" />
    <path
       d="m 39.602,67.199 v 6.6992 c 0,2.8008 2.1992,5 5,5 h 9.6992 c 2.8008,0 5,-2.1992 5,-5 V 67.199 c 0,-2.8008 -2.1992,-5 -5,-5 H 44.602 c -2.7031,0 -5,2.3008 -5,5 z m 16.398,0 v 6.6992 c 0,0.89844 -0.80078,1.6992 -1.6992,1.6992 h -9.6992 c -1,0 -1.6992,-0.80078 -1.6992,-1.6992 V 67.199 c 0,-0.89844 0.80078,-1.6992 1.6992,-1.6992 h 9.6992 c 1,0 1.6992,0.80078 1.6992,1.6992 z"
       id="path154" />
    <path
       d="m 90.699,15.199 c -4.3008,-4.3008 -10,-6.6016 -15.898,-6.6016 h -0.19922 c -12.402,0.10156 -22.5,10.301 -22.5,22.703 0,20.199 20.699,40.199 21.602,41 0.30078,0.30078 0.69922,0.5 1.1016,0.5 0.39844,0 0.80078,-0.10156 1.1016,-0.5 0.89844,-0.80078 21.602,-20.898 21.602,-41 -0.0078,-6 -2.4062,-11.699 -6.8086,-16.102 z M 74.801,68.801 C 70.5002,64.301 55.403,47.5 55.403,31.301 55.403,20.699 64.0046,12 74.602,11.903 h 0.19922 c 5.1016,0 9.8984,2 13.602,5.6992 3.6992,3.6992 5.8008,8.6016 5.8008,13.699 -0.0039,16.199 -15.102,33 -19.402,37.5 z"
       id="path156" />
    <path
       d="m 74.801,19.801 c -6.3008,0 -11.5,5.1992 -11.5,11.5 0,6.3008 5.1992,11.5 11.5,11.5 6.3008,0 11.5,-5.1992 11.5,-11.5 0,-6.3008 -5.1992,-11.5 -11.5,-11.5 z m 0,19.699 c -4.5,0 -8.1992,-3.6992 -8.1992,-8.1992 0,-4.5 3.6992,-8.1992 8.1992,-8.1992 4.5,0 8.1992,3.6992 8.1992,8.1992 0,4.5 -3.6992,8.1992 -8.1992,8.1992 z"
       id="path158" />
  </g>
</svg>
