<?xml version="1.0" encoding="UTF-8" standalone="no"?>
<svg
   data-name="Layer 1"
   viewBox="0 0 29.26 29.368204"
   x="0px"
   y="0px"
   version="1.1"
   id="svg12"
   sodipodi:docname="user.svg"
   width="29.26"
   height="29.368204"
   inkscape:version="1.2.1 (9c6d41e410, 2022-07-14)"
   xmlns:inkscape="http://www.inkscape.org/namespaces/inkscape"
   xmlns:sodipodi="http://sodipodi.sourceforge.net/DTD/sodipodi-0.dtd"
   xmlns="http://www.w3.org/2000/svg"
   xmlns:svg="http://www.w3.org/2000/svg">
  <defs
     id="defs16" />
  <sodipodi:namedview
     id="namedview14"
     pagecolor="#ffffff"
     bordercolor="#999999"
     borderopacity="1"
     inkscape:showpageshadow="0"
     inkscape:pageopacity="0"
     inkscape:pagecheckerboard="0"
     inkscape:deskcolor="#d1d1d1"
     showgrid="false"
     inkscape:zoom="16.432"
     inkscape:cx="14.027507"
     inkscape:cy="20.934761"
     inkscape:window-width="2560"
     inkscape:window-height="1369"
     inkscape:window-x="1432"
     inkscape:window-y="632"
     inkscape:window-maximized="1"
     inkscape:current-layer="svg12" />
  <path
     d="m 20.61,15.708204 a 9,9 0 1 0 -12,0 12.86,12.86 0 0 0 -8.61,12.12 1.54,1.54 0 0 0 3.08,0 9.79,9.79 0 0 1 9.78,-9.78 h 3.54 a 9.79,9.79 0 0 1 9.78,9.78 1.54,1.54 0 1 0 3.08,0 12.86,12.86 0 0 0 -8.65,-12.12 z m -6,-12.5500001 a 5.89,5.89 0 1 1 -5.89,5.89 5.89,5.89 0 0 1 5.89,-5.89 z"
     id="path10" />
</svg>
